<!-- <svg xmlns="http://www.w3.org/2000/svg"
     xmlns:xlink="http://www.w3.org/1999/xlink"
     x="0px" y="0px"
     width="100px" height="100px"
     viewBox="0 0 50 50"
     xml:space="preserve"
     fill="#FFFFFF">
    <path d="M7,2L7,48L43,48L43,14.59375L42.71875,14.28125L30.71875,2.28125L30.40625,2zM9,4L29,4L29,16L41,16L41,46L9,46ZM31,5.4375L39.5625,14L31,14ZM15,22L15,24L35,24L35,22ZM15,28L15,30L31,30L31,28ZM15,34L15,36L35,36L35,34Z"/>
</svg> -->


<svg xmlns="http://www.w3.org/2000/svg" class="icon icon-tabler icon-tabler-file-type-doc" width="44" height="44" viewBox="0 0 24 24" stroke-width="1.5" stroke="#2c3e50" fill="none" stroke-linecap="round" stroke-linejoin="round">
  <path stroke="none" d="M0 0h24v24H0z" fill="#FFFFFF"/>
  <path d="M14 3v4a1 1 0 0 0 1 1h4" />
  <path d="M5 12v-7a2 2 0 0 1 2 -2h7l5 5v4" />
  <path d="M5 15v6h1a2 2 0 0 0 2 -2v-2a2 2 0 0 0 -2 -2h-1z" />
  <path d="M20 16.5a1.5 1.5 0 0 0 -3 0v3a1.5 1.5 0 0 0 3 0" />
  <path d="M12.5 15a1.5 1.5 0 0 1 1.5 1.5v3a1.5 1.5 0 0 1 -3 0v-3a1.5 1.5 0 0 1 1.5 -1.5z" />
</svg>